<svg width="375" height="598" viewBox="0 0 375 598" fill="none" xmlns="http://www.w3.org/2000/svg">
<path d="M41 287C109.783 268.167 337.797 306 332.923 240C331 172 -107.5 100 65.5 16" stroke="#ECC19A"/>
<path d="M0 392.397C0 293.609 89.2232 218.787 186.5 236C284.885 218.776 375 294.486 375 394.367V598H0V392.397Z" fill="white"/>
<path opacity="0.63" d="M184 262C232.049 262 271 255.06 271 246.5C271 237.94 232.049 231 184 231C135.951 231 97 237.94 97 246.5C97 255.06 135.951 262 184 262Z" fill="#F4E9DA"/>
<path d="M40.2744 287.218C18.7047 295.907 6 306.569 6 318.091C6 347.312 87.708 371 188.5 371C289.292 371 371 347.312 371 318.091C371 306.024 357.067 294.901 333.61 286" stroke="#ECC19A"/>
<path d="M-1.95976 292.892C-29.6754 306.385 -46 322.942 -46 340.836C-46 386.214 58.9892 423 188.5 423C318.011 423 423 386.214 423 340.836C423 322.097 405.097 304.823 374.956 291" stroke="#ECC19A"/>
<g clip-path="url(#clip0_6_2)">
<path d="M165.185 202.505L162.281 208.263C156.371 211.425 145.201 210.822 138.486 209.826C124.173 207.678 112.986 194.552 109.324 181.103C105.836 168.341 111.423 157.338 113.851 145.101C114.328 142.634 114.617 140.135 114.715 137.625C120.156 136.872 125.412 135.124 130.221 132.47C137.061 128.657 141.11 123.717 145.332 117.828C148.061 123.726 149.871 130.008 150.699 136.455C152.083 146.419 150.89 156.837 150.395 166.759C149.68 180.679 150.699 195.596 165.185 202.505Z" fill="url(#paint0_linear_6_2)"/>
<path d="M145.308 117.828C141.086 123.717 137.037 128.657 130.197 132.47C125.388 135.124 120.132 136.872 114.691 137.625C115.186 127.899 113.26 117.499 110.296 108.621C106.247 96.4017 99.8361 86.1989 91.9761 76.1691C100.033 79.3552 108.078 81.1273 115.711 85.4411C124.108 90.2144 130.757 96.3599 136.643 103.937C140.048 108.225 142.954 112.884 145.308 117.828Z" fill="url(#paint1_linear_6_2)"/>
<path d="M221.69 178.597C221.434 181.804 220.98 184.993 220.33 188.144C218.872 195.07 215.076 201.283 209.578 205.738C204.08 210.193 197.217 212.618 190.142 212.606H182.909C178.108 212.605 173.36 211.614 168.959 209.696C164.558 207.778 160.599 204.973 157.329 201.458C154.059 197.942 151.547 193.79 149.951 189.26C148.355 184.731 147.708 179.921 148.052 175.13C148.29 171.777 148.702 168.251 149.328 164.558C151.493 151.801 156.275 137.112 165.543 121.252L209.56 123.042C209.56 123.042 224.135 148.699 221.69 178.597Z" fill="#FF5F54"/>
<path d="M211.188 126.497L205.594 142.201C224.242 156.193 229.323 169.051 230.343 177.308C230.487 178.402 230.865 179.451 231.451 180.384C232.038 181.318 232.819 182.114 233.742 182.717C234.664 183.321 235.706 183.717 236.796 183.881C237.886 184.044 238.999 183.969 240.057 183.663C241.685 183.185 243.112 182.186 244.118 180.82C245.124 179.453 245.654 177.794 245.627 176.097C245.24 135.22 211.188 126.497 211.188 126.497Z" fill="#FF5F54"/>
<path d="M162.293 192.929L187.936 192.565L173.999 243.579C174.052 244.588 173.898 245.598 173.548 246.546C173.198 247.495 172.659 248.362 171.963 249.095C171.267 249.828 170.43 250.411 169.501 250.81C168.573 251.208 167.573 251.413 166.563 251.413C164.816 251.414 163.124 250.8 161.784 249.678C160.444 248.557 159.541 247 159.233 245.279L162.293 192.929Z" fill="#FF5F54"/>
<path d="M189.176 194.009L214.82 193.287L217.301 244.665C217.353 245.674 217.2 246.684 216.85 247.632C216.5 248.58 215.96 249.447 215.265 250.18C214.569 250.913 213.731 251.497 212.803 251.896C211.874 252.294 210.874 252.499 209.864 252.499C208.108 252.511 206.405 251.901 205.055 250.777C203.705 249.654 202.795 248.089 202.487 246.359L189.176 194.009Z" fill="#FF5F54"/>
<path d="M215.338 175.906C215.338 178.728 215.201 181.497 214.939 184.17C214.404 189.728 211.82 194.889 207.69 198.646C203.561 202.402 198.181 204.486 192.599 204.492C187.019 204.483 181.643 202.395 177.517 198.636C173.391 194.877 170.813 189.716 170.284 184.158C170.021 181.485 169.884 178.716 169.884 175.894C169.884 151.497 180.064 131.694 192.617 131.694C205.171 131.694 215.338 151.497 215.338 175.906Z" fill="#F6F0F4"/>
<path d="M221.69 178.597C219.519 179.611 217.378 180.5 215.303 181.282C196.744 188.126 181.37 185.244 169.98 179.874C162.169 176.161 155.154 170.963 149.328 164.57C151.493 151.813 156.275 137.123 165.543 121.264L209.56 123.054C209.56 123.054 224.135 148.699 221.69 178.597Z" fill="#FFA573"/>
<path d="M214.832 173.889C205.952 178.382 191.401 176.145 182.092 174.397C181.412 174.271 181.12 175.315 181.805 175.441C191.872 177.326 205.856 179.617 215.374 174.844C216 174.51 215.452 173.579 214.832 173.889Z" fill="#511812"/>
<path d="M233.921 154.385C233.921 154.385 227.427 147.887 205.23 150.327C205.23 150.327 189.803 153.573 184.394 149.242L155.434 182.547L156.788 186.342L225.799 189.033L260.984 151.938V148.46C260.984 148.46 259.791 148.734 258.175 149.057C254.58 149.779 250.928 150.178 247.261 150.25C243.725 150.327 237.964 151.043 233.921 154.385Z" fill="#F6F0F4"/>
<path d="M155.041 189.074L184.394 153.86L230.283 158.138H240.117L262.636 151.151L225.155 191.64L208.91 192.499H196.935L155.041 189.074Z" fill="#021E40"/>
<path d="M240.117 158.138L208.91 192.499H196.225L229.43 158.138H240.117Z" fill="#194070"/>
<path d="M167.022 126.939C168.716 127.563 170.165 128.716 171.154 130.228C172.144 131.74 172.62 133.53 172.514 135.334C171.286 154.922 177.434 167.452 182.127 173.358C182.804 174.229 183.284 175.235 183.536 176.308C183.788 177.381 183.805 178.496 183.586 179.576C183.368 180.656 182.919 181.677 182.27 182.568C181.62 183.458 180.787 184.198 179.825 184.737C178.344 185.564 176.633 185.882 174.954 185.643C173.274 185.404 171.72 184.62 170.528 183.412C151.045 163.895 152.751 143.687 155.917 132.619C156.232 131.489 156.778 130.438 157.519 129.53C158.261 128.622 159.182 127.878 160.225 127.344C161.269 126.81 162.411 126.499 163.581 126.429C164.751 126.359 165.922 126.533 167.022 126.939Z" fill="#FF5F54"/>
<path d="M146.585 89.4566L146.704 89.212C117.971 53.8363 129.732 23.4724 129.732 23.4724C146.084 37.7146 152.28 62.2193 154.355 73.4543L164.416 52.7802C164.279 51.6346 157.593 22.1061 130.572 17.0405C130.596 17.0405 107.798 68.8004 146.585 89.4566Z" fill="#FF5F54"/>
<path d="M146.704 89.212L154.379 73.4543C152.304 62.2193 146.108 37.7146 129.755 23.4724C129.732 23.4724 117.971 53.8363 146.704 89.212Z" fill="url(#paint2_linear_6_2)"/>
<path d="M208.093 70.298L230.158 77.9591C228.673 72.4519 217.533 30.2743 219.501 6.43792C242.527 29.1108 244.477 53.5737 235.084 78.9495C238.167 74.9638 254.99 50.0594 227.588 12.5536L217.921 0.0238647C217.921 0.0238647 200.042 32.4879 208.093 70.298Z" fill="#FF5F54"/>
<path d="M219.477 6.45581C217.509 30.2922 228.649 72.4698 230.134 77.977L234.607 79.5283C234.607 79.5283 234.774 79.3433 235.06 78.9674C244.453 53.5916 242.503 29.1287 219.477 6.45581Z" fill="url(#paint3_linear_6_2)"/>
<path d="M134.765 95.3576C170.826 99.7609 195.438 90.0533 195.438 90.0533C228.476 100.065 245.872 98.9614 255.038 95.2502C257.584 92.0356 259.708 88.5086 261.359 84.755C261.359 84.755 256.255 87.3027 254.048 85.4829C254.048 85.4829 261.747 82.4042 263.351 79.1583C263.351 79.1583 254.483 83.8839 247.601 76.6285C247.601 76.6285 229.943 32.476 190.876 31.3543C190.22 31.3543 189.564 31.3065 188.908 31.2588C185.449 30.9843 170.826 30.8352 157.647 45.5248C157.647 45.5248 145.827 57.5534 136.715 91.4077C136.294 92.8258 135.635 94.1617 134.765 95.3576Z" fill="#FF5F54"/>
<path d="M120.917 100.889C120.917 100.889 129.749 114.558 164.404 126.097L175.448 129.081C191.097 133.236 207.753 131.052 221.803 123.001L222.167 122.804C222.167 122.804 242.843 111.026 255.014 95.28C245.848 98.9912 228.452 100.095 195.414 90.0831C195.414 90.0831 170.803 99.7907 134.741 95.3874C132.713 98.2931 128.592 101.676 120.917 100.889Z" fill="url(#paint4_linear_6_2)"/>
<path d="M186.034 93.0963C185.831 95.638 189.015 97.9709 193.106 98.2991C197.197 98.6273 200.716 96.8433 200.919 94.3015C201.121 91.7598 197.937 89.4268 193.852 89.0927C189.767 88.7586 186.242 90.5843 186.034 93.0963Z" fill="#511812"/>
<path d="M226.407 103.156C226.198 105.698 229.389 108.025 233.474 108.359C237.559 108.693 241.083 106.903 241.286 104.355C241.489 101.807 238.304 99.4805 234.219 99.1523C230.134 98.8241 226.61 100.608 226.407 103.156Z" fill="#FFCDD4"/>
<path d="M146.895 102.631C146.626 105.167 149.727 107.583 153.824 108.001C157.921 108.418 161.47 106.742 161.744 104.206C162.018 101.67 158.917 99.2538 154.814 98.8361C150.711 98.4184 147.169 100.095 146.895 102.631Z" fill="#FFCDD4"/>
<path d="M165.644 93.9375C168.179 93.6392 169.819 90.0771 169.365 85.9841C168.912 81.891 166.443 78.8242 163.915 79.0987C161.386 79.3731 159.74 82.959 160.193 87.0521C160.647 91.1452 163.127 94.2358 165.644 93.9375Z" fill="#511812"/>
<path d="M221.314 93.2872C223.849 92.9948 225.489 89.4328 225.035 85.3337C224.582 81.2347 222.113 78.1739 219.585 78.4483C217.056 78.7228 215.41 82.3087 215.863 86.4077C216.317 90.5067 218.78 93.5676 221.314 93.2872Z" fill="#511812"/>
<path d="M178.967 98.6093V98.6392C181.949 107.696 189.743 106.282 189.826 106.264C190.108 106.21 190.356 106.046 190.517 105.808C190.677 105.57 190.737 105.278 190.682 104.997C190.628 104.715 190.463 104.466 190.226 104.306C189.988 104.145 189.696 104.086 189.415 104.14C189.147 104.188 183.38 105.155 181.024 97.965C180.927 97.7052 180.734 97.4925 180.485 97.3705C180.236 97.2485 179.95 97.2265 179.685 97.3089C179.42 97.3913 179.197 97.572 179.062 97.8138C178.926 98.0556 178.888 98.3403 178.955 98.6093H178.967Z" fill="#511812"/>
<path d="M127.942 111.73C127.453 111.229 126.684 111.992 127.173 112.494C143.674 129.337 144.974 158.287 138.319 179.868C138.293 180.002 138.319 180.141 138.391 180.258C138.463 180.374 138.576 180.458 138.708 180.495C138.84 180.531 138.981 180.516 139.102 180.453C139.223 180.39 139.316 180.283 139.363 180.154C146.119 158.162 144.73 128.896 127.942 111.73Z" fill="#511812"/>
<path d="M131.688 134.456C130.71 128.943 129.266 120.077 124.442 116.431C123.881 116.014 123.344 116.957 123.893 117.368C129.809 121.837 131.103 136.318 131.58 142.78C132.117 149.975 131.795 157.195 131.425 164.397C131.389 165.095 132.475 165.089 132.511 164.397C133.017 154.426 133.435 144.325 131.688 134.456Z" fill="#511812"/>
</g>
<circle cx="34" cy="401" r="9" fill="#F9C001"/>
<circle cx="312" cy="410" r="9" fill="#9DD1D4"/>
<circle cx="226" cy="370" r="13" fill="#7511F4"/>
<defs>
<linearGradient id="paint0_linear_6_2" x1="117" y1="140" x2="168" y2="203" gradientUnits="userSpaceOnUse">
<stop stop-color="#F6625A"/>
<stop offset="1" stop-color="#D95149"/>
</linearGradient>
<linearGradient id="paint1_linear_6_2" x1="99.9632" y1="88.0192" x2="143.346" y2="90.3795" gradientUnits="userSpaceOnUse">
<stop stop-color="#FFECEF"/>
<stop offset="1" stop-color="white"/>
</linearGradient>
<linearGradient id="paint2_linear_6_2" x1="131.4" y1="36.1486" x2="153.435" y2="36.7166" gradientUnits="userSpaceOnUse">
<stop stop-color="#FFECEF"/>
<stop offset="1" stop-color="white"/>
</linearGradient>
<linearGradient id="paint3_linear_6_2" x1="222.404" y1="20.546" x2="239.609" y2="20.8573" gradientUnits="userSpaceOnUse">
<stop stop-color="#FFECEF"/>
<stop offset="1" stop-color="white"/>
</linearGradient>
<linearGradient id="paint4_linear_6_2" x1="141" y1="98" x2="246" y2="119.5" gradientUnits="userSpaceOnUse">
<stop stop-color="#FFECEF"/>
<stop offset="1" stop-color="white"/>
</linearGradient>
<clipPath id="clip0_6_2">
<rect width="184" height="263" fill="white" transform="translate(92)"/>
</clipPath>
</defs>
</svg>
